<svg xmlns="http://www.w3.org/2000/svg" viewBox="0 0 30.3 30.3" width="512" height="512" class="undefined"><style>.a{fill:#888d91;}</style><path d="M22.6 12.5c0 0 1.2-0.9 0.3-1.9 -0.9-0.9-1.8 0.3-1.8 0.3l-9.4 9.4c0 0-2.2 2.8-3.9 1.1 -1.7-1.7 1.1-3.9 1.1-3.9l12.3-12.3c0 0 2.9-3.2 5.6-0.5 2.7 2.7-0.5 5.6-0.5 5.6L12.4 24.2c0 0-4.4 5.1-8.5 1s1.1-8.5 1.1-8.5L15.5 6.2c0 0 1.2-1 0.3-1.9 -0.9-0.9-1.9 0.3-1.9 0.3L1.9 16.7c0 0-4.5 5 0.5 10.1 5.1 5.1 10.1 0.5 10.1 0.5l16.6-16.6c0 0 3.3-3.7-0.6-7.6s-7.6-0.6-7.6-0.6L6.5 16.7c0 0-3.6 3-0.3 6.3 3.3 3.3 6.2-0.4 6.2-0.4L22.6 12.5z" class="a"/></svg>
