<svg xmlns="http://www.w3.org/2000/svg" viewBox="0 0 296 296" width="512" height="512" class="undefined"><style>.a{fill:#888d91;}</style><path d="M148 0C66.4 0 0 66.4 0 148s66.4 148 148 148 148-66.4 148-148S229.6 0 148 0zM148 280c-36.3 0-69.1-14.7-93-38.4 -9.5-9.5-17.6-20.4-23.9-32.4C21.4 190.8 16 170 16 148 16 75.2 75.2 16 148 16c34.5 0 66 13.3 89.5 35.1 12.2 11.3 22.3 24.8 29.6 40 8.3 17.2 12.9 36.5 12.9 56.9C280 220.8 220.8 280 148 280z" class="a"/><circle cx="99.7" cy="115" r="16" class="a"/><circle cx="198.7" cy="115" r="16" class="a"/><path d="M147.7 230c31 0 60.6-15.8 77.6-42.1l-13.4-8.7c-15.6 24.1-44.1 37.6-72.7 34.3 -22.3-2.6-42.8-15.4-55.1-34.3l-13.4 8.7c14.8 22.9 39.7 38.4 66.7 41.5C140.8 229.8 144.3 230 147.7 230z" class="a"/></svg>
