<svg xmlns="http://www.w3.org/2000/svg" viewBox="0 0 58 58" width="512" height="512" class="undefined"><style>.a{fill:#868b90;}</style><path d="M44 28c-0.6 0-1 0.4-1 1v6c0 7.7-6.3 14-14 14s-14-6.3-14-14v-6c0-0.6-0.4-1-1-1s-1 0.4-1 1v6c0 8.5 6.6 15.4 15 15.9V56h-5c-0.6 0-1 0.4-1 1s0.4 1 1 1h12c0.6 0 1-0.4 1-1s-0.4-1-1-1h-5v-5.1c8.4-0.5 15-7.5 15-15.9v-6C45 28.4 44.6 28 44 28z" class="a"/><path d="M29 46c6.1 0 11-4.9 11-11V11c0-6.1-4.9-11-11-11S18 4.9 18 11v24C18 41.1 22.9 46 29 46zM20 11c0-5 4-9 9-9s9 4 9 9v24c0 5-4 9-9 9s-9-4-9-9V11z" class="a"/></svg>
